<?xml version="1.0" encoding="utf-8"?>
<!-- Generator: Adobe Illustrator 15.0.0, SVG Export Plug-In  -->
<!DOCTYPE svg PUBLIC "-//W3C//DTD SVG 1.1//EN" "http://www.w3.org/Graphics/SVG/1.1/DTD/svg11.dtd" [
	<!ENTITY ns_flows "http://ns.adobe.com/Flows/1.0/">
]>
<svg version="1.1"
	 xmlns="http://www.w3.org/2000/svg" xmlns:xlink="http://www.w3.org/1999/xlink" xmlns:a="http://ns.adobe.com/AdobeSVGViewerExtensions/3.0/"
	 x="0px" y="0px" width="1083px" height="1102px" viewBox="-300.654 -196.885 1083 1102"
	 overflow="visible" enable-background="new -300.654 -196.885 1083 1102" xml:space="preserve">
<defs>
</defs>
<g>
	<circle fill="#FFFFFF" cx="448.821" cy="249.902" r="10.784"/>
	<path fill="#C6D5D4" d="M442.229,241.368c2.222-1.75,5.141-2.575,7.98-2.277c2.842,0.267,5.608,1.69,7.476,3.965
		c1.884,2.249,2.855,5.309,2.545,8.312c-0.301,3.01-1.875,5.859-4.322,7.745c-1.17,0.895-2.593,1.598-4.051,1.977
		c-1.47,0.386-3.013,0.444-4.501,0.225c-2.986-0.455-5.701-2.172-7.401-4.564c-1.729-2.381-2.408-5.419-1.946-8.237
		C438.437,245.69,439.975,243.075,442.229,241.368z M442.229,241.368c-2.239,1.729-3.722,4.385-3.988,7.175
		c-0.281,2.789,0.63,5.615,2.38,7.693c1.735,2.102,4.293,3.402,6.919,3.645c2.633,0.262,5.293-0.48,7.38-2.119
		c2.046-1.551,3.488-3.975,3.885-6.578c0.433-2.604-0.184-5.408-1.779-7.619c-1.569-2.218-4.075-3.814-6.846-4.244
		C447.412,238.875,444.467,239.639,442.229,241.368z"/>
</g>
<g>
	<path fill="#FFFFFF" d="M51.74,212.057c0,0-38.143,34.313,8.162,63.544c0,0,16.207,11.438-2.314,34.313
		c-18.522,22.877,15.436,39.397,20.836,18.429l0.774-99.765L51.74,212.057z"/>
	<path fill="#C6D5D4" d="M51.779,212.335c-4.676,5.162-8.508,11.094-10.938,17.459c-1.185,3.217-2.02,6.545-2.235,9.905
		c-0.215,3.353,0.088,6.713,1.034,9.906c0.942,3.19,2.425,6.217,4.318,8.993c1.893,2.782,4.202,5.289,6.68,7.631
		c1.245,1.168,2.55,2.279,3.899,3.342c1.334,1.082,2.715,2.117,4.129,3.109l2.146,1.461c0.206,0.14,0.187,0.138,0.26,0.193
		l0.153,0.127l0.289,0.251c0.186,0.168,0.365,0.338,0.539,0.511c0.348,0.345,0.678,0.701,0.992,1.068
		c1.254,1.467,2.283,3.106,3.049,4.86c1.556,3.509,1.928,7.448,1.324,11.106c-0.583,3.681-2.049,7.079-3.816,10.208
		c-1.762,3.133-3.977,6.012-6.182,8.73c-2.113,2.723-3.757,5.863-4.373,9.211c-0.64,3.333-0.041,6.855,1.743,9.681
		c1.778,2.824,4.588,4.949,7.704,5.981c3.101,1.049,6.588,0.924,9.25-0.631c2.691-1.529,4.342-4.392,5.047-7.518l-0.053,0.407
		c-0.128-8.315-0.136-16.629-0.166-24.944c-0.021-8.314-0.095-16.629-0.005-24.943c0.01-4.157,0.075-8.313,0.154-12.47
		c0.081-4.157,0.118-8.313,0.238-12.47c0.193-8.312,0.434-16.625,0.731-24.937l0.73,1.302c-4.499-2.882-8.984-5.788-13.453-8.719
		l-6.681-4.437C56.107,215.273,53.937,213.814,51.779,212.335z M51.849,211.876c2.37,1.241,4.728,2.503,7.073,3.784l7.049,3.824
		c4.682,2.577,9.35,5.178,14.004,7.803c0.456,0.257,0.717,0.727,0.729,1.215l0.002,0.087c0.169,8.315,0.28,16.631,0.344,24.945
		c0.056,4.158,0.029,8.314,0.045,12.472c0.014,4.157,0.016,8.314-0.039,12.471c-0.039,8.314-0.241,16.626-0.393,24.939
		c-0.158,8.313-0.296,16.626-0.553,24.938l-0.002,0.079c-0.004,0.111-0.021,0.226-0.051,0.329c-0.522,1.847-1.309,3.671-2.479,5.285
		c-1.164,1.609-2.727,2.978-4.521,3.862c-1.792,0.896-3.775,1.308-5.711,1.3c-1.939-0.003-3.835-0.408-5.596-1.092
		c-3.517-1.378-6.529-3.938-8.356-7.2c-0.912-1.626-1.547-3.41-1.81-5.249c-0.273-1.838-0.184-3.708,0.161-5.507
		c0.708-3.618,2.497-6.873,4.628-9.761c1.102-1.436,2.182-2.755,3.151-4.221c0.969-1.448,1.866-2.94,2.655-4.479
		c1.575-3.075,2.673-6.389,2.994-9.728c0.322-3.334-0.24-6.685-1.736-9.565c-0.74-1.439-1.697-2.767-2.814-3.916
		c-0.279-0.287-0.568-0.562-0.863-0.82l-0.447-0.372l-0.336-0.251c-0.772-0.461-1.531-0.945-2.289-1.435
		c-3.027-1.958-5.939-4.139-8.609-6.631c-2.693-2.459-5.119-5.258-7.164-8.344c-2.035-3.085-3.666-6.502-4.573-10.134
		c-0.919-3.621-1.192-7.413-0.729-11.089c0.451-3.676,1.491-7.239,3.01-10.54c1.5-3.313,3.412-6.395,5.601-9.233
		c2.191-2.836,4.632-5.46,7.377-7.74C51.67,211.842,51.771,211.836,51.849,211.876z"/>
</g>
<path fill="#C6D5D4" d="M474.527,252.572h-72.931v43.528h43.296c17.364,0,17.364,18.059,17.364,18.059v95.157
	c0,22.226-16.67,20.144-16.67,20.144h-25.698c-13.306,0-17.167,10.831-18.292,17.129v64.135c0,0,0-35.887,31.257-35.887h42.831
	c0,0,27.783,3.474,27.783-33.571V282.672C503.468,282.672,503.468,252.572,474.527,252.572z"/>
<path fill="#C6D5D4" d="M403.603,167.158c0-1.828-1.483-3.311-3.312-3.311H78.767c-1.829,0-3.311,1.482-3.311,3.311v431.296
	c0,0.271,0.042,0.532,0.104,0.785c-0.062,0.783-0.104,1.568-0.104,2.357c0,38.373,73.458,69.482,164.073,69.482
	c90.614,0,164.073-31.109,164.073-69.482c0-0.789-0.044-1.574-0.104-2.357c0.06-0.253,0.104-0.514,0.104-0.785V167.158z"/>
<linearGradient id="SVGID_1_" gradientUnits="userSpaceOnUse" x1="116.0879" y1="149.7012" x2="366.0703" y2="582.6834">
	<stop  offset="0.1902" style="stop-color:#FFCF21"/>
	<stop  offset="0.7362" style="stop-color:#F9AF00"/>
	<stop  offset="1" style="stop-color:#F39200"/>
</linearGradient>
<path fill="url(#SVGID_1_)" d="M386.647,167.158c0-1.828-1.343-3.311-3-3.311H92.323c-1.657,0-3.001,1.482-3.001,3.311v375.898
	c0,0.272,0.039,0.532,0.096,0.786c-0.057,0.782-0.096,1.567-0.096,2.356c0,38.375,66.559,69.481,148.663,69.481
	c82.103,0,148.662-31.106,148.662-69.481c0-0.789-0.039-1.574-0.095-2.356c0.056-0.254,0.095-0.514,0.095-0.786V167.158z"/>
<path opacity="0.7" fill="#FFFFFF" d="M96.852,550.662c-3.789-16.373-3.671-31.154-4.665-47.914
	c-0.573-9.679-0.801-19.355-0.713-29.051c0-0.007-0.698-243.698-0.698-243.698s8.308,0.867,12.505-11.779
	c0,0,3.751,7.01,6.197,7.665l-2.587,290.441c0,0-2.669,43.216,6.746,56.62c-0.771-1.103-4.035-1.956-5.226-2.861
	C103.23,566.142,98.438,557.515,96.852,550.662z"/>
<ellipse fill="#FFFFFF" stroke="#000000" stroke-width="1.1657" stroke-miterlimit="10" cx="239.529" cy="169.246" rx="164.073" ry="69.482"/>
<circle opacity="0.2" fill="#FFFFFF" cx="171.615" cy="484.098" r="28.555"/>
<g opacity="0.8">
	<path fill="#F9F0E1" d="M152.749,495.937c-1.97-2.062-3.304-4.774-3.991-7.676c-0.67-2.911-0.616-6.021,0.074-8.992
		c1.373-5.969,5.364-11.29,10.594-14.528c5.199-3.288,11.735-4.543,17.703-3.161c2.975,0.681,5.794,1.997,8.118,3.876
		c2.306,1.892,4.16,4.28,5.146,6.957c-3.865-4.17-8.873-6.405-13.918-6.822c-5.054-0.441-10.087,0.892-14.312,3.532
		c-4.229,2.633-7.636,6.576-9.455,11.313C150.87,485.153,150.688,490.639,152.749,495.937z"/>
</g>
<circle opacity="0.2" fill="#FFFFFF" cx="188.303" cy="527.412" r="11.48"/>
<circle opacity="0.2" fill="#FFFFFF" cx="303.575" cy="289.049" r="5.701"/>
<circle opacity="0.2" fill="#FFFFFF" cx="187.629" cy="388.208" r="16.592"/>
<circle opacity="0.2" fill="#FFFFFF" cx="240.88" cy="356.566" r="7.718"/>
<circle opacity="0.2" fill="#FFFFFF" cx="359.152" cy="250.451" r="7.716"/>
<circle opacity="0.2" fill="#FFFFFF" cx="372.077" cy="259.52" r="4.244"/>
<circle opacity="0.2" fill="#FFFFFF" cx="379.022" cy="301.192" r="4.245"/>
<circle opacity="0.2" fill="#FFFFFF" cx="372.944" cy="392.936" r="2.918"/>
<circle opacity="0.2" fill="#FFFFFF" cx="353.749" cy="570.461" r="7.718"/>
<path opacity="0.2" fill="#FFFFFF" d="M371.886,561.779c0-2.346-1.902-4.244-4.247-4.244c-2.341,0-4.243,1.898-4.243,4.244
	c0,2.345,1.902,4.245,4.243,4.245C369.983,566.024,371.886,564.124,371.886,561.779z"/>
<circle opacity="0.2" fill="#FFFFFF" cx="377.865" cy="512.966" r="4.245"/>
<circle opacity="0.2" fill="#FFFFFF" cx="306.092" cy="537.855" r="4.245"/>
<circle opacity="0.2" fill="#FFFFFF" cx="176.245" cy="549.504" r="4.245"/>
<path opacity="0.2" fill="#FFFFFF" d="M370.364,404.223c0-1.613-1.308-2.918-2.92-2.918c-1.608,0-2.916,1.305-2.916,2.918
	c0,1.612,1.308,2.919,2.916,2.919C369.057,407.142,370.364,405.835,370.364,404.223z"/>
<g opacity="0.8">
	<path fill="#F9F0E1" d="M176.902,394.68c-2.246-2.359-3.043-6.107-2.213-9.461c0.779-3.385,3.032-6.414,6.004-8.254
		c2.955-1.859,6.665-2.583,10.051-1.782c3.38,0.722,6.401,3.085,7.533,6.14c-2.195-2.37-5.039-3.633-7.901-3.88
		c-2.872-0.232-5.728,0.512-8.128,2.01c-2.395,1.501-4.34,3.73-5.374,6.423C175.84,388.558,175.732,391.67,176.902,394.68z"/>
</g>
<circle opacity="0.2" fill="#FFFFFF" cx="290.079" cy="450.142" r="9.646"/>
<g opacity="0.8">
	<path fill="#F9F0E1" d="M283.843,453.903c-1.306-1.372-1.77-3.551-1.286-5.501c0.453-1.981,1.76-3.705,3.509-4.808
		c1.69-1.048,3.861-1.497,5.826-1.026c1.965,0.42,3.722,1.794,4.38,3.57c-1.276-1.377-2.93-2.112-4.594-2.256
		c-1.674-0.131-3.32,0.274-4.743,1.179c-1.371,0.838-2.506,2.171-3.107,3.723C283.226,450.344,283.163,452.153,283.843,453.903z"/>
</g>
<g opacity="0.8">
	<path fill="#F9F0E1" d="M180.383,529.735c-1.193-1.72-1.33-4.179-0.471-6.227c0.822-2.083,2.57-3.755,4.627-4.647
		c2.065-0.875,4.483-0.983,6.559-0.14c2.074,0.792,3.76,2.591,4.178,4.642c-1.16-1.721-2.842-2.804-4.635-3.243
		c-1.797-0.432-3.693-0.257-5.359,0.474c-1.681,0.7-3.117,1.951-4.047,3.548C180.312,525.743,179.938,527.709,180.383,529.735z"/>
</g>
<circle opacity="0.2" fill="#FFFFFF" cx="301.751" cy="552.494" r="7.62"/>
<g opacity="0.8">
	<path fill="#F9F0E1" d="M296.493,554.036c-0.791-1.142-0.882-2.773-0.312-4.133c0.545-1.383,1.706-2.493,3.071-3.086
		c1.371-0.58,2.975-0.652,4.353-0.093c1.378,0.525,2.497,1.72,2.773,3.081c-0.77-1.143-1.886-1.861-3.076-2.152
		c-1.192-0.286-2.452-0.169-3.558,0.314c-1.115,0.465-2.069,1.295-2.686,2.355C296.447,551.386,296.198,552.69,296.493,554.036z"/>
</g>
<g opacity="0.8">
	<path fill="#F9F0E1" d="M235.114,359.026c-0.93-1.34-1.036-3.257-0.366-4.853c0.641-1.624,2.003-2.928,3.606-3.623
		c1.608-0.682,3.494-0.767,5.111-0.11c1.618,0.617,2.931,2.019,3.257,3.618c-0.904-1.341-2.215-2.185-3.613-2.528
		c-1.4-0.335-2.878-0.199-4.178,0.37c-1.309,0.546-2.429,1.521-3.153,2.766C235.061,355.915,234.767,357.447,235.114,359.026z"/>
</g>
<circle opacity="0.2" fill="#FFFFFF" cx="295.778" cy="298.014" r="3.469"/>
<g opacity="0.8">
	<path fill="#F9F0E1" d="M293.185,299.119c-0.409-0.604-0.47-1.463-0.164-2.181c0.289-0.729,0.9-1.314,1.621-1.629
		c0.719-0.304,1.573-0.344,2.297-0.048c0.731,0.274,1.312,0.911,1.465,1.625c-0.819-1.22-2.343-1.478-3.502-0.969
		C293.731,296.403,292.865,297.684,293.185,299.119z"/>
</g>
<g opacity="0.8">
	<path fill="#F9F0E1" d="M299.536,290.869c-0.661-0.955-0.736-2.32-0.26-3.457c0.456-1.156,1.427-2.085,2.568-2.58
		c1.146-0.485,2.489-0.546,3.641-0.078c1.152,0.44,2.087,1.438,2.319,2.577c-1.298-1.933-3.711-2.349-5.549-1.538
		C300.399,286.561,299.033,288.597,299.536,290.869z"/>
</g>
<g opacity="0.8">
	<path fill="#F9F0E1" d="M353.674,253.49c-0.931-1.34-1.037-3.257-0.367-4.854c0.641-1.624,2.003-2.928,3.606-3.624
		c1.611-0.682,3.495-0.767,5.113-0.109c1.617,0.618,2.932,2.02,3.257,3.619c-0.904-1.342-2.215-2.186-3.613-2.529
		c-1.4-0.335-2.879-0.199-4.179,0.37c-1.31,0.545-2.43,1.521-3.154,2.766C353.619,250.378,353.326,251.91,353.674,253.49z"/>
</g>
<g opacity="0.8">
	<path fill="#F9F0E1" d="M359.978,571.555c0.02-1.617-0.578-3.059-1.535-4.135c-0.954-1.071-2.273-1.804-3.633-2.066
		c-1.421-0.3-2.872-0.129-4.183,0.482c-1.3,0.619-2.411,1.712-3.024,3.209c-0.006-1.632,0.995-3.271,2.454-4.204
		c1.443-0.974,3.33-1.268,5.012-0.934c1.745,0.363,3.319,1.359,4.283,2.82C360.331,568.154,360.616,570.054,359.978,571.555z"/>
</g>
<path opacity="0.1" fill="#00678D" d="M361.96,541.773c0,17.646-10.883,31.95-24.308,31.95l0,0
	c-13.427,0-24.311-14.305-24.311-31.95V295.326c0-17.646,10.884-31.948,24.311-31.948l0,0c13.425,0,24.308,14.302,24.308,31.948
	V541.773z"/>
<path opacity="0.1" fill="#00678D" d="M274.754,568.014c0,17.645-13.864,31.949-30.967,31.949l0,0
	c-17.1,0-30.965-14.305-30.965-31.949V321.564c0-17.645,13.865-31.946,30.965-31.946l0,0c17.103,0,30.967,14.302,30.967,31.946
	V568.014z"/>
<path opacity="0.1" fill="#00678D" d="M160.146,544.475c0,17.645-9.328,31.949-20.836,31.949l0,0
	c-11.507,0-20.836-14.305-20.836-31.949V298.026c0-17.646,9.329-31.947,20.836-31.947l0,0c11.508,0,20.836,14.302,20.836,31.947
	V544.475z"/>
<path opacity="0.1" fill="#00678D" d="M349.226,540.733c0,17.31-7.901,31.344-17.652,31.344l0,0
	c-9.748,0-17.651-14.034-17.651-31.344v-241.77c0-17.311,7.903-31.342,17.651-31.342l0,0c9.751,0,17.652,14.031,17.652,31.342
	V540.733z"/>
<path opacity="0.1" fill="#00678D" d="M260.744,561.309c0,16.817-7.26,30.448-16.22,30.448l0,0c-8.958,0-16.22-13.631-16.22-30.448
	V326.432c0-16.815,7.262-30.448,16.22-30.448l0,0c8.96,0,16.22,13.633,16.22,30.448V561.309z"/>
<path opacity="0.1" fill="#00678D" d="M158.99,542.354c0,17.217-6.219,31.176-13.891,31.176l0,0
	c-7.672,0-13.891-13.959-13.891-31.176V301.882c0-17.217,6.219-31.173,13.891-31.173l0,0c7.672,0,13.891,13.956,13.891,31.173
	V542.354z"/>
<path fill="#FFFFFF" d="M453.819,205.11c0-8.492-3.206-16.19-8.399-21.822c6.35-4.236,10.586-11.705,10.586-20.237
	c0-13.084-9.928-23.698-22.244-23.905c-3.855-44.158-38.942-78.738-81.675-78.738c-5.665,0-11.195,0.608-16.538,1.766
	c-5.381-21.453-23.852-37.266-45.814-37.266c-8.834,0-17.1,2.566-24.18,7.02c0.07-0.658,0.115-1.325,0.115-2.004
	c0-9.59-7.345-17.365-16.407-17.365c-7.337,0-13.545,5.096-15.646,12.125c-18.796-12.564-41.064-19.841-64.938-19.841
	c-54.027,0-99.831,37.236-115.765,88.778c-1.556-0.518-3.208-0.799-4.926-0.799c-9.063,0-16.408,7.775-16.408,17.364
	c0,1.601,0.221,3.144,0.604,4.615c-17.476,7.638-29.776,25.841-29.776,47.091c0,28.132,21.549,50.937,48.132,50.937
	c6.771,0,13.211-1.486,19.056-4.157c14.916,22.044,36.237,38.899,61.085,47.528v101.433c0,13.427,7.672,24.312,17.137,24.312
	c9.464,0,17.136-10.885,17.136-24.312V262.54c1.236,0.039,2.478,0.065,3.726,0.065c2.917,0,5.809-0.115,8.673-0.329v48.388
	c0,8.737,6.694,15.82,14.95,15.82c8.255,0,14.947-7.083,14.947-15.82v-54.409c11.688,15.616,29.748,25.645,50.033,25.645
	c31.121,0,57.023-23.579,62.659-54.772c9.871,4.455,20.735,6.924,32.146,6.924c16.984,0,32.762-5.461,45.852-14.815
	c0.955,1.988,2.097,3.854,3.417,5.569c-0.672,1.727-1.048,3.614-1.048,5.597V331.11c0,8.15,6.247,14.758,13.948,14.758
	c7.702,0,13.946-6.607,13.946-14.758V275.18l0.091,0.546c0,0-1.431-11.424,10.702-21.031c6.083-2.283,10.446-8.407,10.446-15.626
	c0-4.53-1.719-8.633-4.502-11.628C450.417,221.768,453.819,213.862,453.819,205.11z"/>
<g>
	<path fill="#C6D5D4" d="M453.257,205.117c-0.005-3.935-0.716-7.845-2.122-11.505c-1.401-3.657-3.492-7.05-6.148-9.924
		c-0.221-0.239-0.206-0.611,0.033-0.832c0.022-0.021,0.049-0.042,0.073-0.058c4.054-2.708,7.138-6.787,8.781-11.36
		c1.647-4.573,1.887-9.653,0.663-14.347c-1.207-4.695-3.887-8.996-7.594-12.066c-3.688-3.093-8.431-4.854-13.199-4.854
		c-0.521,0-0.949-0.396-1-0.904l-0.003-0.032c-1.127-11.586-4.59-22.906-10.1-33.077c-5.491-10.176-13.035-19.215-22.105-26.239
		c-9.046-7.042-19.58-12.084-30.658-14.526c-11.067-2.461-22.651-2.335-33.575,0.258c-1.836,0.436-3.677-0.668-4.168-2.476
		l-0.037-0.136c-1.806-6.682-5.055-12.938-9.471-18.166c-4.405-5.236-9.988-9.406-16.167-12.07
		c-6.177-2.679-12.968-3.747-19.626-3.192c-6.652,0.539-13.104,2.792-18.712,6.398c-2.229,1.434-5.197,0.789-6.631-1.44
		c-0.613-0.954-0.847-2.043-0.737-3.089l0.007-0.063c0.322-3.083-0.439-6.192-2.104-8.673c-1.648-2.497-4.186-4.275-6.924-4.908
		c-2.757-0.649-5.728-0.146-8.131,1.389c-2.436,1.517-4.288,4.059-5.133,6.91c-0.793,2.677-3.605,4.204-6.281,3.412
		c-0.494-0.146-0.949-0.362-1.358-0.632l-0.026-0.019c-14.94-10.002-32.215-16.419-50.062-18.462
		c-4.471-0.522-8.933-0.772-13.475-0.751c-4.453,0.018-8.98,0.312-13.435,0.874c-8.923,1.14-17.724,3.318-26.161,6.526
		c-16.876,6.426-32.217,16.965-44.599,30.333C70.676,60.781,61.232,76.962,55.553,94.436l-0.025,0.08
		c-0.465,1.428-1.998,2.209-3.426,1.745c-0.016-0.005-0.044-0.015-0.06-0.02c-2.344-0.822-4.941-0.953-7.374-0.346
		c-2.434,0.598-4.702,1.935-6.488,3.786c-1.791,1.848-3.092,4.196-3.748,6.728c-0.327,1.257-0.5,2.601-0.508,3.877
		c-0.011,1.349,0.15,2.633,0.468,3.939l0.017,0.068c0.264,1.086-0.312,2.179-1.311,2.598c-11.465,4.819-20.664,14.652-25.282,26.315
		c-4.704,11.653-4.8,25.139-0.386,36.942c2.211,5.902,5.539,11.388,9.788,16.039c4.248,4.648,9.435,8.43,15.159,11.001
		c5.714,2.581,12.011,3.903,18.24,3.87c6.307-0.026,12.534-1.395,18.216-4.056c0.816-0.382,1.772-0.104,2.266,0.616l0.017,0.025
		c7.319,10.667,16.268,20.203,26.479,28.088c10.229,7.86,21.727,14.029,33.904,18.111c1.017,0.341,1.662,1.28,1.677,2.294v0.063
		l0.844,65.532l0.439,32.766l0.027,2.048c0.01,0.688,0.014,1.378,0.041,1.958c0.049,1.183,0.175,2.413,0.369,3.595
		c0.391,2.378,1.07,4.691,2.048,6.81c0.974,2.117,2.251,4.045,3.772,5.556c1.515,1.516,3.27,2.57,5.034,2.995
		c1.769,0.433,3.588,0.268,5.282-0.484c1.703-0.744,3.311-2.086,4.64-3.787c2.681-3.426,4.222-8.084,4.591-12.776
		c0.047-0.59,0.076-1.181,0.09-1.774l0.005-0.89l-0.01-1.007l-0.044-4.096l-0.072-8.191l-0.119-16.383l-0.418-65.532
		c-0.019-2.886,2.306-5.24,5.191-5.258l0.117,0l0.115,0.002c0.996,0.021,1.994,0.042,2.968,0.04l1.492-0.007l1.46-0.031
		c1.971-0.054,3.943-0.165,5.916-0.322c2.92-0.232,5.475,1.946,5.707,4.866c0.01,0.126,0.016,0.252,0.017,0.378l0.001,0.068
		l0.211,37.786l0.053,9.446l0.008,1.114c0.006,0.489,0.016,0.531,0.035,0.849c0.043,0.523,0.119,1.041,0.232,1.547
		c0.225,1.014,0.596,1.986,1.096,2.877c0.993,1.786,2.514,3.229,4.246,4.047c0.863,0.414,1.778,0.672,2.714,0.778
		c0.233,0.027,0.47,0.045,0.706,0.05l0.303,0.004l0.295-0.005l0.139-0.008c0.424-0.021,0.924-0.089,1.371-0.188
		c1.826-0.403,3.545-1.445,4.844-2.956c1.305-1.503,2.156-3.437,2.414-5.47c0.066-0.522,0.094-0.994,0.09-1.576l-0.011-2.362
		l-0.021-4.723l-0.041-9.446l-0.123-37.786c-0.01-3.314,2.668-6.01,5.982-6.021c1.961-0.006,3.703,0.927,4.804,2.376l0.033,0.044
		c6.767,9.033,16.073,16.101,26.567,19.918c10.469,3.85,22.147,4.311,32.922,1.428c10.799-2.853,20.655-9.156,28.106-17.637
		c7.492-8.461,12.593-19.055,14.668-30.252l0.012-0.062c0.571-3.084,3.535-5.122,6.62-4.55c0.461,0.086,0.926,0.238,1.335,0.423
		c5.771,2.65,11.887,4.522,18.144,5.598c6.238,1.075,12.704,1.307,19.015,0.727c6.337-0.583,12.61-1.974,18.602-4.193
		c5.99-2.214,11.729-5.175,17.02-8.833l0.134-0.092c2.209-1.527,5.237-0.975,6.764,1.234c0.158,0.229,0.305,0.492,0.419,0.736
		c0.774,1.687,1.711,3.284,2.803,4.754l0.1,0.135c1.012,1.364,1.17,3.104,0.575,4.571c-0.28,0.686-0.491,1.401-0.626,2.133
		c-0.071,0.366-0.113,0.737-0.146,1.11l-0.029,0.562l-0.014,0.794l-0.096,6.483l-0.197,12.967l-0.493,25.933l-1.055,51.867
		l-0.033,1.621l-0.018,0.811l-0.005,0.742c0.009,0.862,0.1,1.738,0.295,2.609c0.39,1.726,1.135,3.382,2.213,4.791
		c2.153,2.853,5.529,4.611,9.212,4.492c1.66-0.048,3.509-0.531,5.056-1.424c1.578-0.884,2.96-2.161,4.013-3.687
		c1.062-1.521,1.772-3.296,2.109-5.148c0.085-0.463,0.136-0.934,0.175-1.405l0.031-0.711l0.014-0.81l0.053-3.242
		c0.269-17.289,0.609-34.578,0.791-51.867l0.001-0.025c0.006-0.601,0.498-1.082,1.099-1.076c0.54,0.006,0.984,0.405,1.062,0.922
		l0.084,0.547l-2.14,0.312c-0.099-1.197-0.03-2.217,0.086-3.302c0.122-1.067,0.324-2.118,0.591-3.15
		c0.533-2.064,1.328-4.052,2.346-5.91c2.034-3.727,4.939-6.896,8.236-9.456l0.011-0.009c0.065-0.051,0.14-0.09,0.214-0.118
		c2.42-0.888,4.613-2.431,6.277-4.435c1.677-1.992,2.843-4.413,3.39-6.971c0.55-2.562,0.501-5.26-0.164-7.793
		c-0.663-2.537-1.938-4.923-3.724-6.851c-0.227-0.243-0.219-0.622,0.009-0.858c2.801-2.887,5.017-6.34,6.504-10.084
		c1.492-3.744,2.251-7.776,2.262-11.812V205.117z M454.382,205.11c0.011,4.173-0.754,8.355-2.283,12.248
		c-1.524,3.893-3.808,7.494-6.71,10.515l0.008-0.858c1.932,2.073,3.352,4.618,4.097,7.355c0.751,2.741,0.84,5.648,0.276,8.43
		c-0.562,2.786-1.8,5.444-3.613,7.653c-1.805,2.211-4.178,3.981-6.868,5.02l0.224-0.127c-3.105,2.505-5.777,5.546-7.602,9.043
		c-0.911,1.745-1.617,3.593-2.062,5.499c-0.22,0.952-0.381,1.917-0.467,2.884c-0.086,0.947-0.107,1.979-0.016,2.819
		c0.066,0.594-0.36,1.129-0.954,1.196c-0.568,0.064-1.084-0.331-1.186-0.884l-0.098-0.544l2.162-0.179
		c0.182,17.289,0.522,34.578,0.791,51.867l0.053,3.242l0.014,0.81l-0.01,0.909c-0.027,0.607-0.076,1.214-0.16,1.818
		c-0.335,2.414-1.171,4.781-2.499,6.865c-2.615,4.195-7.235,7.216-12.479,7.537c-2.421,0.163-5.111-0.28-7.423-1.337
		c-2.345-1.042-4.415-2.65-6.037-4.616c-1.631-1.962-2.804-4.291-3.464-6.754c-0.328-1.226-0.522-2.505-0.588-3.802l-0.03-0.878
		l-0.018-0.811l-0.033-1.621l-1.055-51.867l-0.493-25.933l-0.197-12.967l-0.096-6.483l-0.011-0.827
		c0.005-0.353,0.002-0.705,0.021-1.058c0.035-0.705,0.097-1.411,0.206-2.111c0.21-1.401,0.568-2.783,1.065-4.113l0.675,4.705
		c-1.571-1.988-2.917-4.137-4.031-6.383l7.316,1.878c-5.848,4.287-12.239,7.898-19.04,10.55c-6.788,2.678-13.952,4.446-21.226,5.256
		c-7.306,0.783-14.634,0.629-21.903-0.499c-7.251-1.118-14.346-3.246-21.046-6.227l7.967-4.188
		c-2.306,13.188-8.174,25.804-17.026,35.991c-8.829,10.175-20.676,17.901-33.849,21.467c-13.145,3.611-27.377,3.007-40.189-1.666
		c-12.838-4.627-24.015-13.266-32.056-24.08l10.818-3.6l-0.123,37.786l-0.041,9.446l-0.021,4.723l-0.011,2.362
		c0,0.992-0.068,2.096-0.215,3.133c-0.577,4.208-2.39,8.275-5.247,11.506c-2.834,3.237-6.766,5.642-11.11,6.55
		c-1.093,0.228-2.158,0.366-3.307,0.413l-0.748,0.017c-0.382-0.001-0.578-0.003-0.878-0.017c-0.55-0.021-1.1-0.066-1.647-0.134
		c-2.19-0.271-4.339-0.911-6.306-1.876c-3.948-1.926-7.137-5.099-9.169-8.831c-1.021-1.866-1.76-3.876-2.197-5.941
		c-0.22-1.032-0.364-2.078-0.436-3.125c-0.033-0.468-0.053-1.212-0.049-1.511l0.006-1.248l0.053-9.446l0.211-37.786l5.725,5.312
		c-2.152,0.147-4.312,0.244-6.476,0.279l-1.642,0.017l-1.609-0.01c-1.094-0.01-2.164-0.045-3.234-0.079l5.424-5.255l-0.418,65.532
		l-0.119,16.383l-0.072,8.191l-0.044,4.096l-0.013,1.042l-0.031,1.158c-0.033,0.772-0.089,1.543-0.167,2.313
		c-0.649,6.137-2.679,12.297-6.843,17.443c-2.086,2.541-4.787,4.825-8.132,6.206c-3.327,1.402-7.244,1.687-10.76,0.709
		c-3.538-0.958-6.515-3.024-8.785-5.42c-2.288-2.413-3.964-5.18-5.196-8.052c-1.23-2.877-2.013-5.877-2.427-8.898
		c-0.205-1.519-0.319-3.013-0.341-4.56c-0.014-0.785,0.004-1.46,0.012-2.137l0.027-2.048l0.439-32.766l0.844-65.532l1.676,2.357
		c-12.625-4.52-24.422-11.201-34.848-19.529c-10.458-8.297-19.553-18.257-26.938-29.328l2.281,0.64
		c-6.169,2.769-12.96,4.276-19.692,4.256c-6.808,0.008-13.548-1.454-19.708-4.261c-12.352-5.597-22.02-16.377-26.749-28.972
		c-4.804-12.599-4.776-26.906,0.017-39.555c2.393-6.32,5.997-12.198,10.598-17.195c4.596-5.001,10.213-9.09,16.449-11.902
		l-1.294,2.666c-0.444-1.614-0.704-3.341-0.735-5.01c-0.037-1.742,0.141-3.417,0.523-5.093c0.768-3.332,2.393-6.487,4.735-9.042
		c2.333-2.556,5.403-4.506,8.814-5.444c3.402-0.949,7.087-0.872,10.471,0.212l-3.511,1.805C55.66,74.43,64.973,57.113,77.664,42.56
		c6.335-7.278,13.496-13.869,21.342-19.567c7.854-5.684,16.398-10.452,25.408-14.144c9.006-3.698,18.488-6.306,28.161-7.653
		c4.844-0.685,9.688-1.077,14.615-1.172c4.837-0.097,9.762,0.1,14.617,0.594c9.735,0.97,19.341,3.235,28.538,6.572
		c9.197,3.353,17.959,7.858,26.086,13.283l-7.666,2.76c1.522-5.088,4.877-9.673,9.511-12.537c4.613-2.904,10.458-3.873,15.773-2.559
		c5.36,1.273,9.968,4.775,12.823,9.234c2.898,4.458,4.088,9.912,3.476,15.068l-7.361-4.593c6.954-4.324,15.016-6.916,23.191-7.411
		c8.163-0.519,16.442,1.072,23.812,4.502c7.388,3.416,13.805,8.668,18.756,14.964c4.959,6.303,8.448,13.678,10.252,21.406
		l-4.203-2.611c12.081-2.39,24.631-1.974,36.434,1.145c11.81,3.11,22.799,8.934,32.023,16.723
		c9.229,7.793,16.768,17.463,22.118,28.175c5.359,10.715,8.502,22.456,9.411,34.317l-1.003-0.935
		c5.243,0.129,10.36,2.192,14.281,5.581c3.939,3.38,6.71,8.027,7.907,13.03c1.208,5,0.928,10.342-0.866,15.155
		c-1.777,4.813-5.08,9.05-9.354,11.891l0.106-0.89c2.753,2.993,4.913,6.518,6.357,10.312c1.449,3.791,2.176,7.862,2.171,11.903
		V205.11z"/>
</g>
<path fill="#FFFFFF" d="M402.176,410.589c-0.267,7.526-0.31,15.065-0.228,22.598c0.071,6.481-1.949,16.732,1.521,22.499
	c6.071,10.086,17.957-4.45,20.123-10.945c3.474-10.419,7.524-14.471,11.576-14.471S403.333,372.967,402.176,410.589z"/>
<g>
	<path fill="#C6D5D4" d="M402.74,410.606c-0.007,6.371,0.898,12.737,2.204,19.066c0.298,1.6,0.656,3.098,0.915,4.885
		c0.241,1.728,0.396,3.378,0.523,4.975c0.258,3.181,0.411,6.194,0.803,8.764c0.176,1.283,0.466,2.422,0.795,3.285
		c0.174,0.428,0.337,0.787,0.513,1.048l0.008,0.013c-0.03-0.048,0.078,0.128-0.066-0.105l0.041,0.062l0.082,0.125l0.163,0.25
		c0.04,0.033,0.028,0.029,0.065,0.076c0.086,0.105,0.161,0.203,0.209,0.242c0.11,0.097,0.063,0.072-0.052,0.042
		c-0.117-0.024-0.249-0.014-0.192,0.009c0.102,0.073,0.934-0.088,1.82-0.61c1.866-0.983,3.976-2.895,5.695-4.969
		c0.86-1.045,1.674-2.16,2.288-3.238c0.153-0.269,0.291-0.531,0.41-0.776c0.123-0.252,0.196-0.412,0.363-0.848
		c0.272-0.7,0.638-1.609,0.967-2.367c1.38-3.162,2.926-6.348,5.523-9.387c1.313-1.49,2.968-3.013,5.307-3.976
		c1.154-0.473,2.479-0.757,3.784-0.752h0.245c-0.945,0.062-0.241,0.016-0.442,0.029l0.037-0.003c0.032,0,0.072-0.016-0.269,0.044
		c-0.24,0.048-0.482,0.125-0.71,0.225c-0.5,0.233-0.733,0.414-1.005,0.656c-0.278,0.267-0.439,0.476-0.587,0.704
		c-0.074,0.117-0.141,0.238-0.198,0.361c-0.046,0.097-0.076,0.165-0.11,0.251c-0.061,0.147-0.119,0.377-0.139,0.468
		c-0.049,0.197-0.064,0.441-0.067,0.515l0.002,0.17l0.005,0.086l0.017,0.119c0.006,0.026,0.013,0.048,0.012,0.042
		c0.025,0.019-0.038-0.272-0.119-0.529c-0.346-1.149-0.979-2.573-1.621-3.912c-0.655-1.359-1.37-2.72-2.118-4.068
		c-1.499-2.697-3.129-5.348-4.864-7.916c-0.85-1.298-1.728-2.577-2.64-3.827c-0.905-1.253-1.81-2.51-2.777-3.706
		c-1.914-2.391-3.972-4.743-6.423-6.348c-1.227-0.753-2.587-1.305-3.858-1.064c-1.277,0.221-2.334,1.38-2.978,2.735
		c-0.668,1.361-1.032,2.902-1.262,4.446C402.812,407.453,402.745,409.031,402.74,410.606z M401.611,410.571
		c0.1-1.606,0.256-3.209,0.493-4.809c0.248-1.598,0.571-3.199,1.198-4.754c0.324-0.769,0.714-1.542,1.291-2.226
		c0.567-0.68,1.336-1.285,2.247-1.59c1.853-0.637,3.767-0.172,5.351,0.465c1.626,0.637,3.091,1.514,4.479,2.459
		c1.385,0.953,2.7,1.981,3.945,3.074c2.505,2.176,4.753,4.58,6.876,7.075c2.09,2.522,4.065,5.127,5.937,7.833
		c0.936,1.355,1.844,2.734,2.717,4.168c0.872,1.459,1.712,2.87,2.49,4.701c0.189,0.491,0.382,0.958,0.553,1.759
		c0.021,0.092,0.041,0.212,0.06,0.337c0.018,0.114,0.034,0.247,0.045,0.416l0.014,0.236l-0.003,0.319
		c-0.001,0.174-0.038,0.516-0.102,0.811c-0.027,0.14-0.108,0.415-0.184,0.61c-0.042,0.11-0.079,0.202-0.136,0.321
		c-0.071,0.145-0.15,0.287-0.238,0.424c-0.173,0.271-0.36,0.522-0.681,0.818c-0.309,0.274-0.577,0.492-1.127,0.739
		c-0.25,0.11-0.515,0.195-0.778,0.253c-0.362,0.072-0.348,0.059-0.341,0.061l-0.037,0.006c-0.226,0.016,0.454-0.026-0.516,0.036
		l-0.054,0.009c-0.287,0.038-0.543,0.127-0.844,0.293c-0.596,0.316-1.352,1.017-2.047,1.979c-1.412,1.933-2.56,4.618-3.482,7.372
		c-0.237,0.729-0.415,1.317-0.65,2.126c-0.088,0.318-0.271,0.912-0.454,1.396c-0.182,0.492-0.372,0.955-0.571,1.4
		c-0.793,1.779-1.673,3.374-2.666,4.916c-0.992,1.538-2.078,3.015-3.323,4.437c-1.251,1.419-2.639,2.795-4.388,4.061
		c-0.88,0.62-1.866,1.208-3.001,1.717c-1.143,0.498-2.46,0.939-3.997,1.084c-1.527,0.144-3.281-0.022-4.885-0.625
		c-1.609-0.584-2.998-1.534-4.021-2.549c-0.53-0.509-0.964-1.027-1.367-1.548c-0.206-0.269-0.439-0.604-0.631-0.894l-0.405-0.667
		c-0.641-1.106-1.116-2.216-1.449-3.297c-0.68-2.16-0.92-4.184-1.006-6.071c-0.134-3.784,0.417-7.151,1.072-10.32
		c0.328-1.58,0.7-3.107,1.021-4.563c0.316-1.396,0.581-3.082,0.881-4.667c0.579-3.203,1.203-6.398,1.661-9.585
		C401.031,416.935,401.376,413.745,401.611,410.571z"/>
</g>
<g>
	<circle fill="#FFFFFF" cx="23.589" cy="119.853" r="21.416"/>
	<path fill="#C6D5D4" d="M42.068,130.677c-2.812,4.858-7.522,8.579-12.986,10.201c-5.439,1.677-11.641,1.184-16.899-1.552
		c-2.624-1.357-5.021-3.245-6.956-5.566c-1.92-2.327-3.41-5.052-4.286-7.99c-1.788-5.869-1.004-12.562,2.173-17.911
		c3.109-5.386,8.559-9.353,14.556-10.666c2.992-0.68,6.101-0.707,9.071-0.17c2.979,0.552,5.779,1.714,8.273,3.354
		c4.935,3.237,8.414,8.419,9.604,13.982C45.873,119.92,44.931,125.848,42.068,130.677z M42.068,130.677
		c2.868-4.833,3.565-10.865,1.933-16.156c-0.8-2.648-2.159-5.095-3.896-7.179c-1.756-2.082-3.9-3.75-6.293-4.972
		c-4.72-2.413-10.275-2.823-15.131-1.3c-4.882,1.477-9.059,4.791-11.574,9.128c-2.555,4.313-3.411,9.579-2.312,14.563
		c1.049,4.986,4.11,9.625,8.551,12.577c2.212,1.474,4.737,2.541,7.407,3.047c2.668,0.494,5.468,0.484,8.168-0.118
		C34.337,139.101,39.254,135.542,42.068,130.677z"/>
</g>
<g>
	<path fill="#FFFFFF" d="M303.096,43.469c15.435-20.791,44.8-25.132,65.591-9.698c20.789,15.434,25.133,44.8,9.697,65.59"/>
	<path fill="#C6D5D4" d="M303.096,43.469c3.249-5.239,7.741-9.766,12.975-13.257c5.255-3.459,11.264-5.874,17.549-6.957
		c6.278-1.145,12.812-0.886,19.067,0.558c6.261,1.466,12.208,4.271,17.379,8.1c5.165,3.838,9.565,8.723,12.792,14.286
		c3.225,5.558,5.319,11.758,6.049,18.095c0.781,6.331,0.21,12.782-1.581,18.814c-1.829,6.02-4.863,11.631-8.941,16.254
		c3.243-5.23,5.591-10.914,6.735-16.807c1.199-5.875,1.23-11.919,0.213-17.732c-1.063-5.808-3.16-11.395-6.244-16.369
		c-3.068-4.979-7.088-9.349-11.781-12.824c-4.684-3.492-10.03-6.068-15.683-7.576c-5.65-1.547-11.613-1.89-17.479-1.237
		c-5.859,0.71-11.638,2.488-16.915,5.337C311.922,34.957,307.161,38.849,303.096,43.469z"/>
</g>
<g>
	<path fill="#FFFFFF" d="M350.617,207.33c7.574,18.678-1.431,39.957-20.105,47.531c-18.676,7.572-39.956-1.428-47.528-20.104"/>
	<path fill="#C6D5D4" d="M350.617,207.33c2.167,4.28,3.359,9.099,3.561,13.992c0.172,4.894-0.655,9.866-2.479,14.482
		c-1.78,4.637-4.597,8.876-8.089,12.451c-3.519,3.559-7.793,6.363-12.42,8.275c-4.649,1.856-9.671,2.813-14.675,2.718
		c-4.995-0.136-9.971-1.21-14.479-3.3c-4.524-2.043-8.582-5.034-11.867-8.667c-3.261-3.652-5.763-7.941-7.186-12.523
		c4.257,8.594,11.56,15.282,20.148,18.601c8.565,3.348,18.294,3.322,26.704-0.166c8.467-3.353,15.467-10.11,19.282-18.479
		C352.972,226.348,353.552,216.46,350.617,207.33z"/>
</g>
<g>
	<path fill="#FFFFFF" d="M107.259,216.848c-6.421,19.105-27.113,29.385-46.216,22.965s-29.385-27.111-22.963-46.215"/>
	<path fill="#C6D5D4" d="M107.259,216.848c-1.145,4.659-3.379,9.092-6.413,12.935c-3.057,3.826-6.924,7.059-11.314,9.374
		c-4.371,2.358-9.27,3.739-14.248,4.177c-4.988,0.408-10.059-0.249-14.812-1.813c-4.738-1.621-9.172-4.166-12.905-7.498
		c-3.702-3.357-6.776-7.414-8.835-11.936c-2.102-4.498-3.231-9.41-3.357-14.307c-0.094-4.896,0.802-9.779,2.707-14.183
		c-2.369,9.293-1.186,19.125,3.169,27.238c4.317,8.12,11.716,14.438,20.368,17.27c8.607,2.972,18.32,2.406,26.667-1.458
		C96.657,232.811,103.538,225.686,107.259,216.848z"/>
</g>
<g>
	<path fill="#FFFFFF" d="M428.414,215.463c-2.518,12.616-14.787,20.801-27.4,18.284c-12.616-2.518-20.801-14.784-18.284-27.399"/>
	<path fill="#C6D5D4" d="M428.414,215.463c-0.687,6.097-4.217,11.933-9.417,15.56c-2.577,1.848-5.566,3.119-8.683,3.799
		c-3.125,0.662-6.388,0.657-9.525,0.052c-3.131-0.642-6.144-1.894-8.778-3.701c-2.615-1.826-4.891-4.145-6.561-6.841
		c-3.411-5.346-4.429-12.092-2.721-17.985c-0.746,6.076,0.8,12.204,4.214,16.988c3.392,4.791,8.588,8.191,14.296,9.284
		c5.689,1.185,11.794,0.039,16.765-3.084C422.994,226.428,426.774,221.36,428.414,215.463z"/>
</g>
<g>
	<circle fill="#FFFFFF" cx="128.011" cy="255.564" r="8.103"/>
	<path fill="#C6D5D4" d="M132.598,248.884c1.763,1.187,3.025,3.084,3.467,5.184c0.463,2.095,0.082,4.401-1.116,6.26
		c-1.175,1.865-3.14,3.266-5.358,3.735c-2.217,0.482-4.637-0.002-6.521-1.3c-1.889-1.293-3.213-3.376-3.559-5.619
		c-0.363-2.241,0.241-4.579,1.561-6.345c1.305-1.785,3.322-2.97,5.444-3.288C128.633,247.168,130.857,247.665,132.598,248.884z
		 M132.598,248.884c-1.752-1.203-3.994-1.651-6.051-1.2c-2.061,0.44-3.872,1.742-4.955,3.472c-1.104,1.726-1.445,3.854-1.014,5.789
		c0.412,1.939,1.575,3.684,3.201,4.781c1.607,1.125,3.654,1.586,5.613,1.274c1.961-0.289,3.825-1.376,5.039-3.027
		c1.227-1.633,1.791-3.793,1.461-5.874C135.574,252.018,134.35,250.087,132.598,248.884z"/>
</g>
<g>
	<circle fill="#FFFFFF" cx="408.092" cy="239.773" r="5.787"/>
	<path fill="#C6D5D4" d="M404.555,235.193c1.192-0.939,2.759-1.382,4.282-1.222c1.525,0.144,3.01,0.908,4.012,2.129
		c1.011,1.207,1.532,2.849,1.365,4.46c-0.161,1.616-1.007,3.145-2.319,4.156c-1.273,0.987-2.993,1.441-4.59,1.183
		c-1.603-0.244-3.06-1.166-3.972-2.45c-0.927-1.279-1.291-2.908-1.043-4.421C402.521,237.513,403.345,236.11,404.555,235.193z
		 M404.555,235.193c-1.201,0.928-1.997,2.354-2.14,3.851c-0.151,1.497,0.337,3.014,1.275,4.129c0.932,1.128,2.304,1.827,3.714,1.957
		c1.412,0.141,2.84-0.258,3.959-1.138c1.099-0.833,1.873-2.133,2.086-3.53c0.232-1.397-0.099-2.902-0.955-4.088
		c-0.842-1.191-2.187-2.048-3.673-2.278C407.336,233.855,405.756,234.265,404.555,235.193z"/>
</g>
<g>
	<circle fill="#FFFFFF" cx="376.13" cy="224.212" r="8.104"/>
	<path fill="#C6D5D4" d="M380.718,217.532c1.763,1.187,3.024,3.085,3.465,5.185c0.461,2.098,0.086,4.395-1.121,6.267
		c-1.167,1.852-3.138,3.26-5.355,3.726c-2.223,0.478-4.623,0.006-6.534-1.31c-1.862-1.275-3.204-3.372-3.544-5.611
		c-0.36-2.244,0.238-4.572,1.566-6.351c1.297-1.772,3.32-2.966,5.44-3.281C376.753,215.815,378.978,216.313,380.718,217.532z
		 M380.718,217.532c-1.752-1.204-3.993-1.653-6.051-1.202c-2.062,0.442-3.867,1.735-4.96,3.478c-1.096,1.712-1.444,3.85-1.012,5.782
		c0.418,1.943,1.562,3.675,3.214,4.791c1.581,1.107,3.646,1.582,5.6,1.266c1.964-0.292,3.821-1.37,5.046-3.032
		c1.216-1.62,1.788-3.79,1.456-5.867C383.693,220.667,382.47,218.735,380.718,217.532z"/>
</g>
<g>
	<circle fill="#FFFFFF" cx="119.93" cy="250.809" r="4.654"/>
	<path fill="#C6D5D4" d="M122.564,246.973c1.012,0.682,1.736,1.772,1.989,2.979c0.265,1.205,0.05,2.524-0.643,3.599
		c-0.67,1.063-1.802,1.873-3.075,2.14c-1.277,0.274-2.656,0.003-3.754-0.753c-1.068-0.732-1.84-1.936-2.035-3.222
		c-0.207-1.289,0.137-2.625,0.898-3.648c0.746-1.017,1.908-1.703,3.125-1.884C120.287,245.988,121.564,246.273,122.564,246.973z
		 M122.564,246.973c-1.006-0.691-2.294-0.948-3.475-0.688c-1.185,0.254-2.222,0.996-2.85,1.997c-0.629,0.983-0.829,2.211-0.58,3.321
		c0.24,1.116,0.896,2.11,1.846,2.751c0.908,0.636,2.095,0.908,3.217,0.727c1.127-0.167,2.194-0.786,2.896-1.741
		c0.699-0.931,1.027-2.176,0.836-3.37C124.272,248.773,123.57,247.665,122.564,246.973z"/>
</g>
<g>
	<circle fill="#FFFFFF" cx="69.557" cy="247.559" r="8.103"/>
	<path fill="#C6D5D4" d="M70.708,239.538c2.106,0.282,4.079,1.424,5.405,3.11c1.344,1.672,2.024,3.909,1.775,6.106
		c-0.227,2.193-1.368,4.318-3.149,5.723c-1.78,1.414-4.142,2.055-6.438,1.723c-2.234-0.317-4.367-1.601-5.664-3.457
		c-1.318-1.848-1.812-4.211-1.414-6.379c0.381-2.179,1.662-4.135,3.424-5.361C66.393,239.757,68.607,239.217,70.708,239.538z
		 M70.708,239.538c-2.104-0.302-4.312,0.29-5.956,1.606c-1.65,1.308-2.698,3.278-2.902,5.309c-0.225,2.036,0.412,4.096,1.656,5.639
		c1.236,1.556,3.029,2.602,5.006,2.868c1.907,0.292,3.969-0.199,5.58-1.348c1.63-1.129,2.819-2.93,3.176-4.947
		c0.375-2.007-0.076-4.193-1.295-5.912C74.766,241.028,72.812,239.84,70.708,239.538z"/>
</g>
<g>
	<circle fill="#FFFFFF" cx="74.676" cy="255.272" r="4.654"/>
	<path fill="#C6D5D4" d="M75.337,250.666c1.21,0.162,2.343,0.817,3.104,1.786c0.771,0.96,1.162,2.245,1.02,3.506
		c-0.131,1.259-0.785,2.48-1.809,3.287c-1.018,0.813-2.387,1.179-3.688,0.991c-1.301-0.184-2.514-0.92-3.263-1.986
		c-0.757-1.061-1.042-2.419-0.812-3.664c0.217-1.251,0.954-2.375,1.965-3.079C72.859,250.792,74.131,250.481,75.337,250.666z
		 M75.337,250.666c-1.208-0.174-2.477,0.167-3.421,0.923c-0.947,0.751-1.549,1.883-1.666,3.049
		c-0.129,1.169,0.236,2.352,0.951,3.238c0.706,0.893,1.748,1.495,2.866,1.645c1.113,0.17,2.284-0.113,3.214-0.772
		c0.936-0.648,1.618-1.683,1.823-2.842c0.216-1.152-0.044-2.408-0.743-3.395C77.667,251.521,76.545,250.839,75.337,250.666z"/>
</g>
<path opacity="0.7" fill="#FFFFFF" d="M169.106,657.354c0,0-16.593-11.575-19.293-25.854c-2.639-13.941-16.786-23.862-16.788-23.864
	c-16.238-7.473-31.453-15.982-43.021-31.666c-6.445-8.738-6.423-22.896-7.841-33.666c-1.789-13.581-1.807-27.149-1.807-40.843
	c0,0.016,0,86.426,0,86.426s-4.121,28.474,39.803,52.481C136.697,650.519,169.106,657.354,169.106,657.354z"/>
<path opacity="0.7" fill="#FFFFFF" d="M115.374,318.269V546.32c0,0-2.315,26.336,20.547,34.438c0,0-26.046,2.316-26.046-41.095
	L115.374,318.269z"/>
<path opacity="0.5" fill="#FFFFFF" d="M207.984,338.526v228.053c0,0-2.316,26.336,20.547,34.438c0,0-26.046,2.316-26.046-41.095
	L207.984,338.526z"/>
<g>
	<path fill="#FFFFFF" d="M401.309,243.452c1.604-1.24,3.914-0.943,5.151,0.664c1.241,1.604,0.945,3.912-0.662,5.152
		c-1.605,1.242-3.913,0.944-5.153-0.662C399.403,247,399.699,244.693,401.309,243.452z"/>
	<path fill="#C6D5D4" d="M401.309,243.452c1.512-1.224,3.985-1.026,5.269,0.584c0.633,0.754,0.971,1.807,0.862,2.827
		c-0.105,1.027-0.637,1.991-1.48,2.641c-0.796,0.617-1.898,0.913-2.908,0.746c-1.02-0.159-1.937-0.737-2.525-1.563
		c-0.579-0.8-0.817-1.844-0.657-2.801C400.016,244.924,400.541,244.034,401.309,243.452z M401.309,243.452
		c-0.763,0.589-1.269,1.493-1.361,2.444c-0.094,0.953,0.21,1.906,0.813,2.627c1.185,1.458,3.459,1.663,4.872,0.513
		c1.422-1.045,1.853-3.307,0.711-4.837c-0.525-0.745-1.384-1.297-2.326-1.442C403.075,242.604,402.072,242.864,401.309,243.452z"/>
</g>
</svg>
